<svg xmlns="http://www.w3.org/2000/svg" viewBox="0 0 64 64" width="256" height="256">
  <rect width="64" height="64" rx="12" ry="12" fill="#0F1F3D"/>
  <!-- Bulb glass -->
  <path d="M 32 8
           C 21 8, 14 16, 14 26
           C 14 32, 17 37, 21 41
           L 21 46
           L 43 46
           L 43 41
           C 47 37, 50 32, 50 26
           C 50 16, 43 8, 32 8 Z"
        fill="#C9A646"/>
  <!-- Base bands -->
  <rect x="23" y="47" width="18" height="3" rx="0.8" fill="#C9A646"/>
  <rect x="24" y="51" width="16" height="3" rx="0.8" fill="#C9A646"/>
  <path d="M 27 55 L 37 55 L 35 58 L 29 58 Z" fill="#C9A646"/>
  <!-- Inner circuit (negative space — navy on the gold bulb) -->
  <g fill="none" stroke="#0F1F3D" stroke-width="1.8" stroke-linecap="round">
    <line x1="22" y1="22" x2="32" y2="17"/>
    <line x1="32" y1="17" x2="42" y2="22"/>
    <line x1="22" y1="22" x2="32" y2="30"/>
    <line x1="32" y1="30" x2="42" y2="22"/>
    <line x1="32" y1="30" x2="32" y2="38"/>
  </g>
  <g fill="#0F1F3D">
    <circle cx="22" cy="22" r="2"/>
    <circle cx="32" cy="17" r="2"/>
    <circle cx="42" cy="22" r="2"/>
    <circle cx="32" cy="30" r="2"/>
    <circle cx="32" cy="38" r="2"/>
  </g>
</svg>
